name Walk5.mot
datacolumns 19
datarows 10
range 1.51200000 1.52100000
endheader

                time	   L_ground_force_vx	   L_ground_force_vy	   L_ground_force_vz	   L_ground_force_px	   L_ground_force_py	   L_ground_force_pz	   R_ground_force_vx	   R_ground_force_vy	   R_ground_force_vz	   R_ground_force_px	   R_ground_force_py	   R_ground_force_pz	   L_ground_torque_x	   L_ground_torque_y	   L_ground_torque_z	   R_ground_torque_x	   R_ground_torque_y	   R_ground_torque_z	
          1.51200000	         22.55572569	        628.87707693	         35.06148159	         -0.31797964	          0.00000000	         -0.06424482	         -0.02616106	          0.19875692	         -0.00362766	          0.00014125	          0.00000000	          0.00005449	          0.00000000	         -0.82117117	          0.00000000	          0.00000000	         -0.00003623	          0.00000000	
          1.51300000	         22.64253519	        629.54973399	         35.14981351	         -0.31734503	          0.00000000	         -0.06426117	         -0.02827643	          0.21226391	         -0.00371690	          0.00014778	          0.00000000	          0.00005691	          0.00000000	         -0.83245055	          0.00000000	          0.00000000	         -0.00004447	          0.00000000	
          1.51400000	         22.73715847	        630.24236958	         35.23871940	         -0.31671175	          0.00000000	         -0.06427640	         -0.03047159	          0.22614942	         -0.00379908	          0.00015430	          0.00000000	          0.00005933	          0.00000000	         -0.84379488	          0.00000000	          0.00000000	         -0.00005329	          0.00000000	
          1.51500000	         22.83995389	        630.95603441	         35.32839180	         -0.31608000	          0.00000000	         -0.06429051	         -0.03274490	          0.24039126	         -0.00387321	          0.00016079	          0.00000000	          0.00006172	          0.00000000	         -0.85518294	          0.00000000	          0.00000000	         -0.00006272	          0.00000000	
          1.51600000	         22.95127596	        631.69177158	         35.41901635	         -0.31545000	          0.00000000	         -0.06430351	         -0.03509421	          0.25496373	         -0.00393823	          0.00016723	          0.00000000	          0.00006408	          0.00000000	         -0.86659314	          0.00000000	          0.00000000	         -0.00007276	          0.00000000	
          1.51700000	         23.07147525	        632.45061539	         35.51077044	         -0.31482194	          0.00000000	         -0.06431538	         -0.03751691	          0.26983737	         -0.00399303	          0.00017357	          0.00000000	          0.00006639	          0.00000000	         -0.87800357	          0.00000000	          0.00000000	         -0.00008344	          0.00000000	
          1.51800000	         23.20089822	        633.23359019	         35.60382184	         -0.31419605	          0.00000000	         -0.06432613	         -0.04000978	          0.28497873	         -0.00403643	          0.00017978	          0.00000000	          0.00006865	          0.00000000	         -0.88939211	          0.00000000	          0.00000000	         -0.00009476	          0.00000000	
          1.51900000	         23.33988685	        634.04170895	         35.69832739	         -0.31357252	          0.00000000	         -0.06433576	         -0.04256908	          0.30035018	         -0.00406719	          0.00018583	          0.00000000	          0.00007083	          0.00000000	         -0.90073649	          0.00000000	          0.00000000	         -0.00010674	          0.00000000	
          1.52000000	         23.48877813	        634.87597119	         35.79443180	         -0.31295156	          0.00000000	         -0.06434423	         -0.04519039	          0.31590959	         -0.00408402	          0.00019167	          0.00000000	          0.00007293	          0.00000000	         -0.91201430	          0.00000000	          0.00000000	         -0.00011940	          0.00000000	
          1.52100000	         23.64790336	        635.73736020	         35.89226653	         -0.31233337	          0.00000000	         -0.06435155	         -0.04786865	          0.33161019	         -0.00408554	          0.00019726	          0.00000000	          0.00007491	          0.00000000	         -0.92320301	          0.00000000	          0.00000000	         -0.00013274	          0.00000000	
